Aka: Le scaphandre et le papillon
 
http://www.imdb.com/title/tt0401383/

Source: Le.Scaphandre.Et.Le.Papillon.720p.BluRay.x264-ESiR Thanks!

Subs: Arabic, Brazilian, Bulgarian, Danish, Dutch, English, Farsi-Persian, Finnish, French, Norwegian, Portuguese, Romanian, Spanish and Swedish.

Sample and Screens included.

General
Complete name                            : The Diving Bell and the Butterfly-720p MP4 AAC x264 BRRip 2007-CC.mp4
Format                                   : MPEG-4
Format profile                           : Base Media
Codec ID                                 : isom
File size                                : 2.69 GiB
Duration                                 : 1h 49mn
Overall bit rate mode                    : Variable
Overall bit rate                         : 3 508 Kbps
Encoded date                             : UTC 2012-10-29 18:14:12

Video
ID                                       : 1
Format                                   : AVC
Format/Info                              : Advanced Video Codec
Format profile                           : High@L4.1
Format settings, CABAC                   : Yes
Format settings, ReFrames                : 5 frames
Codec ID                                 : avc1
Codec ID/Info                            : Advanced Video Coding
Duration                                 : 1h 49mn
Source duration                          : 1h 49mn
Bit rate                                 : 3 123 Kbps
Maximum bit rate                         : 18.9 Mbps
Width                                    : 1 280 pixels
Height                                   : 688 pixels
Display aspect ratio                     : 1.85:1
Frame rate mode                          : Variable
Frame rate                               : 24.000 fps
Minimum frame rate                       : 19.048 fps
Maximum frame rate                       : 24.390 fps
Color space                              : YUV
Chroma subsampling                       : 4:2:0
Bit depth                                : 8 bits
Scan type                                : Progressive
Bits/(Pixel*Frame)                       : 0.148
Stream size                              : 2.39 GiB (89%)
Source stream size                       : 2.39 GiB (89%)
Writing library                          : x264 core 112

Audio
ID                                       : 2
Format                                   : AAC
Format/Info                              : Advanced Audio Codec
Format profile                           : LC
Codec ID                                 : 40
Duration                                 : 1h 49mn
Bit rate mode                            : Variable
Bit rate                                 : 384 Kbps
Maximum bit rate                         : 482 Kbps
Channel(s)                               : 6 channels
Channel positions                        : Front: L C R, Side: L R, LFE
Sampling rate                            : 48.0 KHz
Compression mode                         : Lossy
Delay relative to video                  : 83ms
Stream size                              : 302 MiB (11%)
Language                                 : French

Enjoy...

Requested by w0rtez

Coming soon: The Horse Whisperer, 21 Grams, Monsters Ball, The Interpreter and more...